<svg width="107" height="44" viewBox="0 0 107 44" fill="none" xmlns="http://www.w3.org/2000/svg">
<path fill-rule="evenodd" clip-rule="evenodd" d="M22.2001 16.1406L31.1117 16.1406C37.0192 16.1406 41.8525 20.9761 41.8525 26.8865L41.8525 28.8071L46.4236 24.6636L46.4309 24.6573L46.4562 24.6338C48.6291 22.6643 50 19.8217 50 16.6743L50 10.7459C50 4.83555 45.1667 -2.24565e-05 39.2591 -2.2973e-05L18.8887 -2.47538e-05C12.9811 -2.52703e-05 8.14777 4.83555 8.14777 10.7459L8.14777 14.7537L18.7973 5.10062C19.1789 4.75503 19.698 4.67089 20.1682 4.87987C20.6393 5.08886 20.9251 5.52945 20.9251 6.04422L20.9251 14.8658C20.9251 15.5679 21.4975 16.1397 22.1983 16.1397L22.2001 16.1406Z" fill="#6A4EDB"/>
<path fill-rule="evenodd" clip-rule="evenodd" d="M18.8891 27.4194C12.9815 27.4194 8.14818 22.5838 8.14818 16.6734L8.14818 14.7528L3.57621 18.8963L3.56896 18.9026L3.54364 18.9261C1.37069 20.8956 -0.000179198 23.7382 -0.000179473 26.8856L-0.000179992 32.814C-0.000180508 38.7244 4.83313 43.5599 10.7407 43.5599L31.1112 43.5599C37.0187 43.5599 41.8521 38.7244 41.8521 32.814L41.8521 28.8062L31.2025 38.4593C30.8209 38.8049 30.3018 38.889 29.8316 38.68C29.3605 38.4711 29.0747 38.0305 29.0747 37.5157L29.0747 28.6941C29.0747 27.992 28.5023 27.4203 27.8015 27.4203L18.89 27.4203L18.8891 27.4194Z" fill="#ADF485"/>
<path fill-rule="evenodd" clip-rule="evenodd" d="M8.1481 16.6744C8.1481 22.5847 12.9814 27.4203 18.889 27.4203L27.8006 27.4203C28.5023 27.4203 29.0738 27.993 29.0738 28.6941L29.0738 37.5157C29.0738 38.0314 29.3604 38.4711 29.8306 38.6801C30.3018 38.889 30.8199 38.8058 31.2015 38.4593L41.8511 28.8063L41.8511 26.8856C41.8511 20.9753 37.0178 16.1397 31.1102 16.1397L22.1986 16.1397C21.4969 16.1397 20.9254 15.567 20.9254 14.8659L20.9254 6.04427C20.9254 5.5286 20.6388 5.08801 20.1685 4.87993C19.6974 4.67095 19.1793 4.75418 18.7977 5.10068L8.1481 14.7537L8.1481 16.6744Z" fill="white"/>
<path d="M62.642 27.676C59.826 27.676 58.088 26.004 58 23.87H60.926C60.992 24.706 61.652 25.278 62.642 25.278C63.632 25.278 64.116 24.794 64.116 24.244C64.116 22.286 58.264 23.166 58.264 19.272C58.264 17.38 59.782 15.884 62.554 15.884C65.172 15.884 66.822 17.512 66.976 19.58H64.028C63.94 18.832 63.522 18.282 62.554 18.282C61.674 18.282 61.256 18.7 61.256 19.184C61.256 21.01 67.108 20.064 67.108 24.068C67.108 26.136 65.546 27.676 62.642 27.676Z" fill="white"/>
<path d="M73.041 15.884C75.989 15.884 77.727 17.82 77.727 20.68V27.39H75.483L74.999 26.29H74.889C74.427 26.774 73.437 27.676 71.699 27.676C69.565 27.676 67.915 26.202 67.915 24.332C67.915 22.022 70.115 20.592 73.305 20.592H74.735V20.372C74.735 19.206 74.075 18.546 73.019 18.546C72.007 18.546 71.523 19.228 71.435 19.69H68.443C68.597 17.798 70.093 15.884 73.041 15.884ZM72.403 25.234C73.833 25.234 74.735 24.222 74.735 23.166V22.594H73.217C71.523 22.594 70.907 23.21 70.907 24.046C70.907 24.728 71.413 25.234 72.403 25.234Z" fill="white"/>
<path d="M91.683 15.884C94.125 15.884 95.709 17.578 95.709 20.658V27.39H92.717V20.768C92.717 19.426 91.947 18.656 90.979 18.656C90.011 18.656 89.241 19.426 89.241 20.768V27.39H86.249V20.768C86.249 19.426 85.479 18.656 84.511 18.656C83.543 18.656 82.773 19.426 82.773 20.768V27.39H79.781V16.17H82.025L82.509 17.27H82.619C82.861 16.918 83.829 15.884 85.325 15.884C87.041 15.884 88.009 16.83 88.427 17.468C88.955 16.764 90.165 15.884 91.683 15.884Z" fill="white"/>
<path d="M102.153 15.884C105.101 15.884 106.839 17.82 106.839 20.68V27.39H104.595L104.111 26.29H104.001C103.539 26.774 102.549 27.676 100.811 27.676C98.6771 27.676 97.0271 26.202 97.0271 24.332C97.0271 22.022 99.2271 20.592 102.417 20.592H103.847V20.372C103.847 19.206 103.187 18.546 102.131 18.546C101.119 18.546 100.635 19.228 100.547 19.69H97.5551C97.7091 17.798 99.2051 15.884 102.153 15.884ZM101.515 25.234C102.945 25.234 103.847 24.222 103.847 23.166V22.594H102.329C100.635 22.594 100.019 23.21 100.019 24.046C100.019 24.728 100.525 25.234 101.515 25.234Z" fill="white"/>
</svg>
